STARTFONT 2.1
FONT -JDECW-Screen-Medium-R-Normal--16-160-75-75-M-160-JISX0208-Kanji00.3
SIZE 16 75 75
FONTBOUNDINGBOX 16 16 0 -2

STARTPROPERTIES 26
FONTNAME_REGISTRY ""
FAMILY_NAME "Screen"
FOUNDRY "JDECW"
WEIGHT_NAME "Medium"
SLANT "R"
SETWIDTH_NAME "Normal"
ADD_STYLE_NAME ""
PIXEL_SIZE 16
POINT_SIZE 160
RESOLUTION_X 75
RESOLUTION_Y 75
SPACING "M"
AVERAGE_WIDTH 160
CHARSET_REGISTRY "JISX0208"
CHARSET_ENCODING "Kanji00"
DEVICE_FONT_NAME "Screen-JISX0208-Kanji00"
CHARSET_COLLECTIONS "JISX0208 Kanji00"
FULL_NAME "Screen JISX0208 Kanji00"
COPYRIGHT "Copyright (c) 1988 Digital Equipment Corporation Japan."
CAP_HEIGHT 13
X_HEIGHT 9
WEIGHT 10
QUAD_WIDTH 16
DEFAULT_CHAR 8738
FONT_DESCENT 2
FONT_ASCENT 14
ENDPROPERTIES

CHARS 59

STARTCHAR C2122
ENCODING 8482
SWIDTH 900 0
DWIDTH 16 0
BBX 16 16 0 -2
BITMAP
0000
0000
0008
0004
0006
0006
0000
0000
0000
0000
0000
0000
0000
0000
0000
0000
ENDCHAR

STARTCHAR C2123
ENCODING 8483
SWIDTH 900 0
DWIDTH 16 0
BBX 16 16 0 -2
BITMAP
0000
001C
0022
0022
0022
001C
0000
0000
0000
0000
0000
0000
0000
0000
0000
0000
ENDCHAR

STARTCHAR C2124
ENCODING 8484
SWIDTH 900 0
DWIDTH 16 0
BBX 16 16 0 -2
BITMAP
0000
0003
0003
0001
0002
0000
0000
0000
0000
0000
0000
0000
0000
0000
0000
0000
ENDCHAR

STARTCHAR C2125
ENCODING 8485
SWIDTH 900 0
DWIDTH 16 0
BBX 16 16 0 -2
BITMAP
0000
000C
000C
0000
0000
0000
0000
0000
0000
0000
0000
0000
0000
0000
0000
0000
ENDCHAR

STARTCHAR C2131
ENCODING 8497
SWIDTH 900 0
DWIDTH 16 0
BBX 16 16 0 -2
BITMAP
0001
0001
0001
0001
0001
0001
0001
0001
0001
0001
0001
0001
0001
0001
0001
0000
ENDCHAR

STARTCHAR C2132
ENCODING 8498
SWIDTH 900 0
DWIDTH 16 0
BBX 16 16 0 -2
BITMAP
8000
8000
8000
8000
8000
8000
8000
8000
8000
8000
8000
8000
8000
8000
8000
0000
ENDCHAR

STARTCHAR C213c
ENCODING 8508
SWIDTH 900 0
DWIDTH 16 0
BBX 16 16 0 -2
BITMAP
0000
0000
0100
0100
0100
0100
0100
0100
0100
0100
0100
0100
0100
0100
0000
0000
ENDCHAR

STARTCHAR C213d
ENCODING 8509
SWIDTH 900 0
DWIDTH 16 0
BBX 16 16 0 -2
BITMAP
0000
0080
0080
0080
0080
0080
0080
0080
0080
0080
0080
0080
0080
0080
0080
0000
ENDCHAR

STARTCHAR C213e
ENCODING 8510
SWIDTH 900 0
DWIDTH 16 0
BBX 16 16 0 -2
BITMAP
0000
0000
0000
0000
0000
0080
0080
0080
0080
0080
0000
0000
0000
0000
0000
0000
ENDCHAR

STARTCHAR C2141
ENCODING 8513
SWIDTH 900 0
DWIDTH 16 0
BBX 16 16 0 -2
BITMAP
0000
0000
0080
0100
0200
0200
0200
0100
0080
0040
0020
0020
0020
0040
0080
0000
ENDCHAR

STARTCHAR C2142
ENCODING 8514
SWIDTH 900 0
DWIDTH 16 0
BBX 16 16 0 -2
BITMAP
0000
0000
0000
0000
0000
FFFF
0000
0000
0000
FFFF
0000
0000
0000
0000
0000
0000
ENDCHAR

STARTCHAR C2143
ENCODING 8515
SWIDTH 900 0
DWIDTH 16 0
BBX 16 16 0 -2
BITMAP
0000
0000
0000
0000
0000
0000
0000
FFFF
0000
0000
0000
0000
0000
0000
0000
0000
ENDCHAR

STARTCHAR C2144
ENCODING 8516
SWIDTH 900 0
DWIDTH 16 0
BBX 16 16 0 -2
BITMAP
0000
0180
0180
0000
0000
0000
0180
0180
0000
0000
0000
0180
0180
0000
0000
0000
ENDCHAR

STARTCHAR C2145
ENCODING 8517
SWIDTH 900 0
DWIDTH 16 0
BBX 16 16 0 -2
BITMAP
0000
0000
0000
0180
0180
0000
0000
0000
0000
0000
0180
0180
0000
0000
0000
0000
ENDCHAR

STARTCHAR C2146
ENCODING 8518
SWIDTH 900 0
DWIDTH 16 0
BBX 16 16 0 -2
BITMAP
0000
0000
0000
0000
0000
0000
0000
0000
0000
0000
0000
0000
000E
000D
0000
0000
ENDCHAR

STARTCHAR C2147
ENCODING 8519
SWIDTH 900 0
DWIDTH 16 0
BBX 16 16 0 -2
BITMAP
000B
0007
0000
0000
0000
0000
0000
0000
0000
0000
0000
0000
0000
0000
0000
0000
ENDCHAR

STARTCHAR C2148
ENCODING 8520
SWIDTH 900 0
DWIDTH 16 0
BBX 16 16 0 -2
BITMAP
0000
0000
0000
0000
0000
0000
0000
0000
0000
000E
000D
0000
0000
000E
000D
0000
ENDCHAR

STARTCHAR C2149
ENCODING 8521
SWIDTH 900 0
DWIDTH 16 0
BBX 16 16 0 -2
BITMAP
000B
0007
0000
0000
000B
0007
0000
0000
0000
0000
0000
0000
0000
0000
0000
0000
ENDCHAR

STARTCHAR C214a
ENCODING 8522
SWIDTH 900 0
DWIDTH 16 0
BBX 16 16 0 -2
BITMAP
0000
0000
0000
0000
0000
0000
0000
0000
0000
0000
0000
07E0
1818
2004
4002
0000
ENDCHAR

STARTCHAR C214b
ENCODING 8523
SWIDTH 900 0
DWIDTH 16 0
BBX 16 16 0 -2
BITMAP
0000
4002
2004
1818
07E0
0000
0000
0000
0000
0000
0000
0000
0000
0000
0000
0000
ENDCHAR

STARTCHAR C214c
ENCODING 8524
SWIDTH 900 0
DWIDTH 16 0
BBX 16 16 0 -2
BITMAP
0000
0000
0000
0000
0000
0000
0000
0000
0000
0000
0000
1FF8
2004
4002
8001
0000
ENDCHAR

STARTCHAR C214d
ENCODING 8525
SWIDTH 900 0
DWIDTH 16 0
BBX 16 16 0 -2
BITMAP
8001
4002
2004
1FF8
0000
0000
0000
0000
0000
0000
0000
0000
0000
0000
0000
0000
ENDCHAR

STARTCHAR C214e
ENCODING 8526
SWIDTH 900 0
DWIDTH 16 0
BBX 16 16 0 -2
BITMAP
0000
0000
0000
0000
0000
0000
0000
0000
0000
0000
0000
7FFE
4002
4002
4002
0000
ENDCHAR

STARTCHAR C214f
ENCODING 8527
SWIDTH 900 0
DWIDTH 16 0
BBX 16 16 0 -2
BITMAP
0000
4002
4002
4002
7FFE
0000
0000
0000
0000
0000
0000
0000
0000
0000
0000
0000
ENDCHAR

STARTCHAR C2150
ENCODING 8528
SWIDTH 900 0
DWIDTH 16 0
BBX 16 16 0 -2
BITMAP
0000
0000
0000
0000
0000
0000
0000
0000
0000
0000
0000
0180
3E7C
4002
8001
0000
ENDCHAR

STARTCHAR C2151
ENCODING 8529
SWIDTH 900 0
DWIDTH 16 0
BBX 16 16 0 -2
BITMAP
0000
8001
4002
3E7C
0180
0000
0000
0000
0000
0000
0000
0000
0000
0000
0000
0000
ENDCHAR

STARTCHAR C2152
ENCODING 8530
SWIDTH 900 0
DWIDTH 16 0
BBX 16 16 0 -2
BITMAP
0000
0000
0000
0000
0000
0000
0000
0000
0000
0180
0240
0420
0810
1008
2004
0000
ENDCHAR

STARTCHAR C2153
ENCODING 8531
SWIDTH 900 0
DWIDTH 16 0
BBX 16 16 0 -2
BITMAP
0000
2004
1008
0810
0420
0240
0180
0000
0000
0000
0000
0000
0000
0000
0000
0000
ENDCHAR

STARTCHAR C2154
ENCODING 8532
SWIDTH 900 0
DWIDTH 16 0
BBX 16 16 0 -2
BITMAP
0000
0000
0000
0000
0000
0000
0000
0180
0240
0C30
318C
4242
0C30
300C
4002
0000
ENDCHAR

STARTCHAR C2155
ENCODING 8533
SWIDTH 900 0
DWIDTH 16 0
BBX 16 16 0 -2
BITMAP
0000
4002
300C
0C30
4242
318C
0C30
0240
0180
0000
0000
0000
0000
0000
0000
0000
ENDCHAR

STARTCHAR C2156
ENCODING 8534
SWIDTH 900 0
DWIDTH 16 0
BBX 16 16 0 -2
BITMAP
0000
0000
0000
0000
0000
0000
0000
0000
0000
0000
0000
03FE
0002
0002
0002
0000
ENDCHAR

STARTCHAR C2157
ENCODING 8535
SWIDTH 900 0
DWIDTH 16 0
BBX 16 16 0 -2
BITMAP
0000
4000
4000
4000
7F80
0000
0000
0000
0000
0000
0000
0000
0000
0000
0000
0000
ENDCHAR

STARTCHAR C2158
ENCODING 8536
SWIDTH 900 0
DWIDTH 16 0
BBX 16 16 0 -2
BITMAP
0000
0000
0000
0000
0000
0000
0000
0000
0000
0000
07FE
0402
07FA
000A
000E
0000
ENDCHAR

STARTCHAR C2159
ENCODING 8537
SWIDTH 900 0
DWIDTH 16 0
BBX 16 16 0 -2
BITMAP
0000
7000
5000
5FE0
4020
7FE0
0000
0000
0000
0000
0000
0000
0000
0000
0000
0000
ENDCHAR

STARTCHAR C215a
ENCODING 8538
SWIDTH 900 0
DWIDTH 16 0
BBX 16 16 0 -2
BITMAP
0000
0000
0000
0000
0000
0000
0000
0000
0000
0000
7FFE
7FFE
700E
6006
4002
0000
ENDCHAR

STARTCHAR C215b
ENCODING 8539
SWIDTH 900 0
DWIDTH 16 0
BBX 16 16 0 -2
BITMAP
0000
4002
6006
700E
7FFE
7FFE
0000
0000
0000
0000
0000
0000
0000
0000
0000
0000
ENDCHAR

STARTCHAR C2222
ENCODING 8738
SWIDTH 900 0
DWIDTH 16 0
BBX 16 16 0 -2
BITMAP
0000
7FFE
4002
4002
4002
4002
4002
4002
4002
4002
4002
4002
4002
4002
7FFE
0000
ENDCHAR

STARTCHAR C2421
ENCODING 9249
SWIDTH 900 0
DWIDTH 16 0
BBX 16 16 0 -2
BITMAP
0000
0000
0040
0040
03F8
0040
0050
01F8
0294
04A2
04C2
0344
0018
0000
0000
0000
ENDCHAR

STARTCHAR C2423
ENCODING 9251
SWIDTH 900 0
DWIDTH 16 0
BBX 16 16 0 -2
BITMAP
0000
0000
0000
0000
0400
0410
0408
0408
0404
0484
0480
0300
0000
0000
0000
0000
ENDCHAR

STARTCHAR C2425
ENCODING 9253
SWIDTH 900 0
DWIDTH 16 0
BBX 16 16 0 -2
BITMAP
0000
0000
0060
0018
0000
0038
00C4
0002
0002
0002
0004
0008
0030
0000
0000
0000
ENDCHAR

STARTCHAR C2427
ENCODING 9255
SWIDTH 900 0
DWIDTH 16 0
BBX 16 16 0 -2
BITMAP
0000
0000
00C0
0030
0000
01F8
0010
0020
0040
00A0
0110
0210
000E
0000
0000
0000
ENDCHAR

STARTCHAR C2429
ENCODING 9257
SWIDTH 900 0
DWIDTH 16 0
BBX 16 16 0 -2
BITMAP
0000
0000
0000
0088
0084
03E2
0080
00F8
0184
0282
0482
0484
0318
0000
0000
0000
ENDCHAR

STARTCHAR C2443
ENCODING 9283
SWIDTH 900 0
DWIDTH 16 0
BBX 16 16 0 -2
BITMAP
0000
0000
0000
0000
0070
0188
0E04
0004
0004
0008
0010
00E0
0000
0000
0000
0000
ENDCHAR

STARTCHAR C2463
ENCODING 9315
SWIDTH 900 0
DWIDTH 16 0
BBX 16 16 0 -2
BITMAP
0000
0000
0000
0100
00C0
0400
0230
02C8
0F04
0108
0130
0080
0080
0000
0000
0000
ENDCHAR

STARTCHAR C2465
ENCODING 9317
SWIDTH 900 0
DWIDTH 16 0
BBX 16 16 0 -2
BITMAP
0000
0000
0000
0020
0438
04D4
0512
0512
0512
0254
0238
0020
00C0
0000
0000
0000
ENDCHAR

STARTCHAR C2467
ENCODING 9319
SWIDTH 900 0
DWIDTH 16 0
BBX 16 16 0 -2
BITMAP
0000
0000
0000
0040
0040
007C
0040
0040
01C0
0230
0228
01C4
0000
0000
0000
0000
ENDCHAR

STARTCHAR C246e
ENCODING 9326
SWIDTH 900 0
DWIDTH 16 0
BBX 16 16 0 -2
BITMAP
0000
0000
0000
0200
0200
0270
0E88
0304
0604
0A04
0208
0230
0000
0000
0000
0000
ENDCHAR

STARTCHAR C2521
ENCODING 9505
SWIDTH 900 0
DWIDTH 16 0
BBX 16 16 0 -2
BITMAP
0000
0000
0000
0000
03FC
0004
0008
0070
0040
0040
0040
0180
0000
0000
0000
0000
ENDCHAR

STARTCHAR C2523
ENCODING 9507
SWIDTH 900 0
DWIDTH 16 0
BBX 16 16 0 -2
BITMAP
0000
0000
0000
0004
0008
0010
0030
0050
0090
0110
0010
0010
0000
0000
0000
0000
ENDCHAR

STARTCHAR C2525
ENCODING 9509
SWIDTH 900 0
DWIDTH 16 0
BBX 16 16 0 -2
BITMAP
0000
0000
0020
0020
03FE
0202
0202
0202
0004
0004
0008
0010
0060
0000
0000
0000
ENDCHAR

STARTCHAR C2527
ENCODING 9511
SWIDTH 900 0
DWIDTH 16 0
BBX 16 16 0 -2
BITMAP
0000
0000
0000
0000
0FF8
0080
0080
0080
0080
0080
1FFC
0000
0000
0000
0000
0000
ENDCHAR

STARTCHAR C2529
ENCODING 9513
SWIDTH 900 0
DWIDTH 16 0
BBX 16 16 0 -2
BITMAP
0000
0000
0000
0020
0020
0FFC
0060
00A0
0120
0220
0C20
00E0
0000
0000
0000
0000
ENDCHAR

STARTCHAR C2543
ENCODING 9539
SWIDTH 900 0
DWIDTH 16 0
BBX 16 16 0 -2
BITMAP
0000
0000
0000
0242
0122
0122
0004
0004
0008
0010
0020
0040
0000
0000
0000
0000
ENDCHAR

STARTCHAR C2563
ENCODING 9571
SWIDTH 900 0
DWIDTH 16 0
BBX 16 16 0 -2
BITMAP
0000
0000
0000
0080
0080
00FE
0784
0088
0050
0040
0040
0040
0040
0000
0000
0000
ENDCHAR

STARTCHAR C2565
ENCODING 9573
SWIDTH 900 0
DWIDTH 16 0
BBX 16 16 0 -2
BITMAP
0000
0000
0000
0000
07E0
0020
0020
0020
0020
0020
1FF8
0000
0000
0000
0000
0000
ENDCHAR

STARTCHAR C2567
ENCODING 9575
SWIDTH 900 0
DWIDTH 16 0
BBX 16 16 0 -2
BITMAP
0000
0000
0000
03FC
0004
0004
0004
01FC
0004
0004
0004
03FC
0000
0000
0000
0000
ENDCHAR

STARTCHAR C256e
ENCODING 9582
SWIDTH 900 0
DWIDTH 16 0
BBX 16 16 0 -2
BITMAP
0000
0000
0000
07FC
0404
0404
0404
0408
0008
0010
0020
00C0
0000
0000
0000
0000
ENDCHAR

STARTCHAR C2575
ENCODING 9589
SWIDTH 900 0
DWIDTH 16 0
BBX 16 16 0 -2
BITMAP
0000
0000
0000
0040
0040
0040
03FC
0044
0044
0084
0084
0114
0208
0000
0000
0000
ENDCHAR

STARTCHAR C2576
ENCODING 9590
SWIDTH 900 0
DWIDTH 16 0
BBX 16 16 0 -2
BITMAP
0000
0000
0080
0080
0100
01FE
0210
0210
0410
0020
0020
0040
0080
0000
0000
0000
ENDCHAR
ENDFONT
